PathFileType	4	(X/Y/Z)	C:/Users/opensim2020/Desktop/walking_exp_matlab/subject01_walking06_straight_03.trc																																																																																																																															
DataRate	CameraRate	NumFrames	NumMarkers	Units	OrigDataRate	OrigDataStartFrame	OrigNumFrames																																																																																																																											
100	100	4	43	mm	100	2156	206																																																																																																																											
Frame#	Time	LFHD			RFHD			LBHD			RBHD			C7			T10			CLAV			STRN			RBAK			LSHO			LUPA			LELB			LFRM			LWRA			LWRB			LFIN			RSHO			RUPA			RELB			RFRM			RWRA			RWRB			RFIN			LASI			RASI			LPSI			RPSI			LTHI			LKNE			LTIB			LANK			LHEE			LTOE			RTHI			RKNE			RTIB			RANK			RHEE			RTOE			*39			*40			*41			*42		
		X1	Y1	Z1	X2	Y2	Z2	X3	Y3	Z3	X4	Y4	Z4	X5	Y5	Z5	X6	Y6	Z6	X7	Y7	Z7	X8	Y8	Z8	X9	Y9	Z9	X10	Y10	Z10	X11	Y11	Z11	X12	Y12	Z12	X13	Y13	Z13	X14	Y14	Z14	X15	Y15	Z15	X16	Y16	Z16	X17	Y17	Z17	X18	Y18	Z18	X19	Y19	Z19	X20	Y20	Z20	X21	Y21	Z21	X22	Y22	Z22	X23	Y23	Z23	X24	Y24	Z24	X25	Y25	Z25	X26	Y26	Z26	X27	Y27	Z27	X28	Y28	Z28	X29	Y29	Z29	X30	Y30	Z30	X31	Y31	Z31	X32	Y32	Z32	X33	Y33	Z33	X34	Y34	Z34	X35	Y35	Z35	X36	Y36	Z36	X37	Y37	Z37	X38	Y38	Z38	X39	Y39	Z39	X40	Y40	Z40	X41	Y41	Z41	X42	Y42	Z42	X43	Y43	Z43
																																																																																																																																		
52	0.51	-547.71112	1665.12903	1372.13867	-517.97595	1675.54822	1482.53137	-662.72864	1623.9895	1399.17029	-634.47003	1634.0509	1516.13733	-698.83459	1433.44519	1444.16724	-742.04858	1141.77942	1462.4126	-555.849	1362.927	1437.75671	-517.01764	1207.40112	1432.0083	-754.00983	1241.93555	1527.13745	-622.98859	1391.54163	1279.26587	-644.95526	1205.69446	1194.68933	-642.91083	1053.06763	1191.08203	-575.2146	958.35944	1166.67249	-466.32104	872.13422	1183.17017	-517.70166	850.7132	1161.92773	-451.95435	798.63538	1150.69128	-611.65491	1394.00525	1592.75989	-683.60461	1200.43616	1695.078	-695.47791	1076.8136	1696.48352	-685.55829	957.56921	1729.14648	-623.03333	829.59656	1713.1156	-666.3963	837.93573	1752.57947	-643.66846	753.73816	1747.95776	-586.91229	929.95313	1346.31091	-563.84509	939.01654	1560.69641	-766.48358	945.60278	1421.09106	-747.16895	946.47626	1565.61719	-639.77148	598.79443	1303.8562	-655.65002	464.41635	1323.45801	-717.56714	283.65793	1324.34961	-745.21613	66.49812	1386.08838	-784.41315	38.44	1443.73889	-598.72717	31.44044	1367.03357	-517.65802	620.68219	1634.68201	-474.71292	467.3176	1612.2782	-568.05487	315.70551	1613.46301	-640.8335	123.84201	1565.96338	-690.40222	95.15051	1509.42432	-523.59644	48.92073	1585.0199	-532.17365	1708.69458	1460.32458	1973.17334	1023.25861	-3101.9209	2012.60352	1021.99066	-3140.74634	NaN	NaN	NaN
53	0.52	-538.98224	1664.64783	1371.70935	-509.34802	1674.80994	1482.10547	-654.16101	1623.71594	1398.55493	-625.95276	1633.53223	1515.55615	-690.47137	1432.97546	1443.28394	-734.04504	1141.43799	1461.40869	-547.57068	1362.37073	1436.95361	-508.85992	1206.79065	1431.1217	-746.03186	1241.67834	1526.06653	-614.59692	1391.14709	1278.47986	-635.89191	1205.50439	1193.60962	-632.62628	1052.63647	1189.52429	-562.49786	959.56433	1165.34094	-451.38928	876.35956	1182.09302	-502.08383	853.46857	1160.82751	-434.91995	803.599	1149.49011	-603.4693	1393.38171	1591.99377	-676.14117	1199.77747	1693.97327	-688.4577	1076.43225	1695.21558	-680.34344	957.30164	1728.0022	-620.00134	828.23816	1712.33618	-663.29822	837.47253	1751.71887	-642.16071	752.79059	1747.13318	-579.48199	929.09277	1345.3302	-555.88049	938.50092	1559.64807	-758.87256	945.17297	1420.49817	-739.17822	945.91187	1565.02222	-635.38403	598.29761	1303.47034	-652.93701	464.04575	1323.06287	-715.96277	283.78705	1324.28992	-744.71277	66.84698	1386.30029	-784.03632	39.00838	1444.04163	-598.43726	31.38436	1366.80334	-508.34067	620.72577	1633.0459	-464.44107	467.49847	1609.92627	-550.43951	311.62781	1611.27771	-613.14093	116.21378	1563.6521	-661.84875	86.19948	1507.6571	-491.85254	48.08881	1581.89941	-523.41821	1708.07861	1459.92358	1973.00293	1023.83276	-3102.01953	2012.51233	1021.97736	-3140.56592	NaN	NaN	NaN
54	0.53	-530.26312	1664.11816	1371.34583	-500.80954	1674.0979	1481.69592	-645.4881	1623.32703	1398.05103	-617.39667	1632.95178	1515.0708	-682.0376	1432.48706	1442.50977	-725.98047	1141.02698	1460.52734	-539.25159	1361.73389	1436.23999	-500.63107	1206.15015	1430.30469	-737.81256	1241.10315	1525.02124	-606.06738	1390.69617	1277.755	-626.68524	1205.18555	1192.5752	-622.20093	1052.26758	1188.24451	-549.79926	960.72443	1164.16797	-436.58469	880.57239	1181.099	-486.61407	856.22949	1159.87378	-417.8923	808.13684	1148.6687	-595.20691	1392.64624	1591.30286	-668.57227	1199.11572	1692.93372	-681.36609	1076.06763	1694.13733	-674.9093	957.00085	1727.02942	-616.65802	826.96045	1711.62012	-659.89978	836.92847	1750.9657	-640.2431	751.87854	1746.48364	-571.94897	928.27142	1344.37598	-547.77515	937.9093	1558.65759	-751.15082	944.71411	1420.0188	-731.1543	945.25482	1564.47046	-630.7597	597.8667	1303.15063	-650.02612	463.76324	1322.74121	-714.34875	283.97244	1324.27551	-744.18018	67.30707	1386.5387	-783.62213	39.76463	1444.31104	-598.03601	31.18007	1366.71545	-499.13605	620.68176	1631.98438	-454.6188	467.6235	1607.62427	-532.78156	307.74908	1609.35889	-585.00574	109.1229	1561.77185	-632.51923	76.55998	1505.8374	-459.82538	47.7632	1579.17847	-514.7301	1707.40015	1459.66479	1973.18433	1023.4444	-3101.90967	2012.52087	1021.98999	-3140.60547	NaN	NaN	NaN
55	0.54	-521.54382	1663.5863	1371.0647	-492.10614	1673.3811	1481.52148	-636.66705	1622.76233	1397.60413	-608.82721	1632.30212	1514.69958	-673.55664	1432.02356	1441.87842	-717.89972	1140.5907	1459.77148	-530.84369	1361.08765	1435.6145	-492.31229	1205.47046	1429.57837	-729.56775	1240.5177	1524.12817	-597.5332	1390.19836	1277.13464	-617.46674	1204.8385	1191.60425	-611.92706	1051.84973	1186.99158	-537.1853	961.92139	1163.16663	-422.10892	884.71381	1180.23376	-471.39139	859.03058	1159.03516	-401.37479	812.81879	1147.76074	-586.82733	1391.88354	1590.6814	-660.91663	1198.41003	1692.02197	-674.17139	1075.62854	1693.12744	-669.26709	956.69214	1726.16357	-612.95874	825.71472	1711.05774	-656.26343	836.45856	1750.38245	-637.92517	751.10516	1745.98425	-564.28229	927.41394	1343.50586	-539.52155	937.25281	1557.73914	-743.39148	944.15771	1419.62634	-723.12	944.74347	1564.06494	-626.02753	597.44757	1302.96082	-647.04755	463.46603	1322.44629	-712.70642	284.21906	1324.27368	-743.63708	67.67497	1386.70752	-783.19476	40.63719	1444.65454	-597.63654	30.86698	1366.6709	-490.64087	620.09943	1630.771	-445.36578	467.43295	1605.3241	-515.13354	304.1402	1607.8772	-556.38116	102.54069	1560.02209	-602.74677	67.67006	1504.7439	-427.67117	48.03422	1576.31384	-506.056	1706.71106	1459.48804	1973.22266	1023.26471	-3101.99707	2012.55811	1022.03674	-3140.58984	NaN	NaN	NaN
